<svg xmlns="http://www.w3.org/2000/svg" width="64" height="64" viewBox="0 0 64 64"><rect width="64" height="64" rx="14" fill="#0d1117"/><g transform="translate(2,3) scale(0.226)"><defs><linearGradient id="cgFv" x1="0" y1="55" x2="0" y2="205" gradientUnits="userSpaceOnUse"><stop offset="0" stop-color="#c9a7ff"/><stop offset="0.55" stop-color="#a371f7"/><stop offset="1" stop-color="#7c3aed"/></linearGradient></defs><path d="M 179.3 146.0 C 178.3 148.6 175.4 150.9 172.4 153.3 C 169.4 155.7 167.1 159.0 161.2 160.5 C 155.4 161.9 145.2 161.7 137.3 162.2 C 129.4 162.7 121.1 164.1 113.7 163.7 C 106.2 163.3 98.1 161.5 92.5 159.7 C 87.0 158.0 84.0 155.5 80.4 153.2 C 76.8 150.9 70.9 148.4 70.9 146.0 C 71.0 143.6 77.0 141.2 80.6 138.8 C 84.1 136.5 86.4 133.6 92.1 132.1 C 97.8 130.6 107.2 130.2 114.7 129.8 C 122.2 129.4 129.8 129.4 137.3 129.7 C 144.9 130.1 153.0 130.8 159.8 132.1 C 166.7 133.4 175.2 135.4 178.5 137.7 C 181.7 140.0 180.3 143.4 179.3 146.0 Z" fill="url(#cgFv)"/><path d="M 160.5 136.1 C 160.6 136.9 163.7 138.0 161.4 138.6 C 159.2 139.3 151.6 139.6 147.1 140.0 C 142.6 140.5 139.1 141.4 134.4 141.6 C 129.6 141.7 123.5 141.2 118.5 141.0 C 113.5 140.7 109.1 140.5 104.4 140.1 C 99.7 139.7 92.5 139.3 90.4 138.7 C 88.2 138.0 91.2 136.9 91.6 136.1 C 91.9 135.3 90.5 134.4 92.5 133.7 C 94.4 133.0 99.3 132.4 103.5 131.9 C 107.8 131.4 112.9 131.1 118.0 130.9 C 123.1 130.7 129.2 130.6 134.1 130.8 C 139.0 131.0 142.9 131.6 147.4 132.1 C 151.8 132.6 158.5 133.0 160.7 133.6 C 162.8 134.3 160.4 135.3 160.5 136.1 Z" fill="#ffffff" opacity="0.16"/><path d="M 171.9 112.0 C 172.0 114.3 172.5 117.0 170.0 119.0 C 167.4 121.0 161.8 122.7 156.8 124.2 C 151.8 125.7 146.1 127.3 140.0 127.9 C 133.8 128.5 125.9 128.7 120.0 128.0 C 114.1 127.2 109.1 125.1 104.7 123.5 C 100.4 121.9 97.4 120.3 93.8 118.3 C 90.3 116.4 83.6 114.2 83.3 112.0 C 83.0 109.8 88.6 107.3 92.1 105.4 C 95.5 103.4 99.3 101.8 103.9 100.1 C 108.4 98.4 113.4 95.6 119.3 95.0 C 125.3 94.4 133.1 95.9 139.7 96.5 C 146.4 97.1 154.1 97.3 159.1 98.7 C 164.1 100.2 167.3 102.9 169.5 105.1 C 171.6 107.3 171.8 109.7 171.9 112.0 Z" fill="url(#cgFv)"/><path d="M 157.7 103.2 C 157.7 103.8 155.9 104.5 154.3 105.1 C 152.6 105.7 150.8 106.5 147.8 106.9 C 144.7 107.3 140.0 107.5 136.1 107.6 C 132.1 107.7 128.0 107.6 124.0 107.5 C 120.1 107.4 115.9 107.2 112.2 106.9 C 108.5 106.5 104.0 106.1 101.9 105.4 C 99.7 104.8 99.3 103.9 99.4 103.2 C 99.5 102.5 100.4 101.6 102.6 101.0 C 104.8 100.4 109.3 100.1 112.8 99.6 C 116.3 99.2 119.6 98.6 123.5 98.5 C 127.4 98.3 132.3 98.5 136.2 98.7 C 140.1 98.9 144.0 99.2 147.0 99.7 C 150.1 100.1 152.5 100.7 154.3 101.3 C 156.1 101.9 157.7 102.6 157.7 103.2 Z" fill="#ffffff" opacity="0.16"/><path d="M 159.7 82.0 C 160.1 84.0 159.0 86.4 157.1 88.3 C 155.1 90.3 151.7 92.1 148.0 93.5 C 144.3 94.9 139.4 96.3 134.7 96.7 C 129.9 97.2 124.4 96.7 119.6 96.2 C 114.7 95.7 108.7 95.2 105.5 93.8 C 102.4 92.3 102.3 89.5 100.6 87.6 C 98.9 85.6 96.0 84.0 95.2 82.0 C 94.4 80.0 94.0 77.3 95.9 75.4 C 97.8 73.6 102.6 72.1 106.5 70.8 C 110.4 69.4 114.8 67.6 119.4 67.4 C 123.9 67.1 129.0 68.7 133.6 69.3 C 138.2 69.9 143.4 70.0 146.8 71.1 C 150.3 72.3 152.4 74.4 154.5 76.2 C 156.7 78.0 159.3 80.0 159.7 82.0 Z" fill="url(#cgFv)"/><path d="M 149.2 74.3 C 149.5 74.9 148.6 75.7 147.1 76.2 C 145.6 76.8 142.7 77.2 140.1 77.6 C 137.5 77.9 134.4 78.1 131.5 78.2 C 128.6 78.3 125.7 78.1 122.7 78.0 C 119.7 77.9 115.9 78.0 113.4 77.7 C 111.0 77.4 109.5 76.7 108.1 76.1 C 106.6 75.5 104.8 74.9 104.9 74.3 C 104.9 73.7 107.0 73.1 108.4 72.5 C 109.8 71.9 110.8 71.2 113.2 70.9 C 115.5 70.5 119.4 70.5 122.5 70.4 C 125.6 70.2 128.9 69.9 132.0 70.0 C 135.0 70.1 138.4 70.5 140.7 70.9 C 143.0 71.3 144.3 71.9 145.7 72.5 C 147.2 73.1 149.0 73.7 149.2 74.3 Z" fill="#ffffff" opacity="0.16"/><path d="M 128 19.6 Q 133.52 34.480000000000004 148.4 40 Q 133.52 45.519999999999996 128 60.4 Q 122.48 45.519999999999996 107.6 40 Q 122.48 34.480000000000004 128 19.6 Z" fill="#f0b429"/></g></svg>