<svg xmlns="http://www.w3.org/2000/svg" width="423" height="150" viewBox="0 0 423 150"><rect x="0" y="14" width="30" height="118" rx="6" fill="#f0b429"/><g transform="translate(58,106)"><g fill="#e6edf3"><path d="M1061 57Q987 14 902.0 -7.5Q817 -29 719 -29Q460 -29 314.0 127.0Q168 283 168 559Q168 836 315.0 992.5Q462 1149 721 1149Q811 1149 894.5 1128.0Q978 1107 1061 1063V795Q997 850 920.5 879.5Q844 909 762 909Q619 909 542.0 818.0Q465 727 465 559Q465 391 542.0 301.0Q619 211 762 211Q847 211 921.0 239.5Q995 268 1061 326Z" transform="translate(0.00,0) scale(0.05762,-0.05762)"/><path d="M700 526Q536 526 471.0 484.0Q406 442 406 340Q406 264 451.0 219.0Q496 174 573 174Q689 174 753.0 261.5Q817 349 817 506V526ZM1108 639V0H817V125Q764 51 681.0 11.0Q598 -29 498 -29Q307 -29 200.5 72.0Q94 173 94 354Q94 550 221.0 643.5Q348 737 614 737H817V786Q817 857 765.5 893.5Q714 930 614 930Q509 930 410.5 903.5Q312 877 205 819V1069Q302 1109 402.0 1128.0Q502 1147 614 1147Q887 1147 997.5 1036.0Q1108 925 1108 639Z" transform="translate(71.54,0) scale(0.05762,-0.05762)"/><path d="M221 1120H801V225H1165V0H143V225H508V895H221ZM508 1665H801V1323H508Z" transform="translate(143.08,0) scale(0.05762,-0.05762)"/><path d="M1151 811Q1103 855 1038.5 877.0Q974 899 897 899Q804 899 734.5 866.5Q665 834 627 772Q603 734 593.5 680.0Q584 626 584 516V0H291V1120H584V946Q627 1042 716.0 1094.5Q805 1147 924 1147Q984 1147 1041.5 1132.5Q1099 1118 1151 1090Z" transform="translate(214.63,0) scale(0.05762,-0.05762)"/><path d="M1071 727V0H780V682Q780 804 745.5 856.5Q711 909 633 909Q554 909 508.5 838.0Q463 767 463 641V0H172V1120H463V952Q494 1045 569.0 1096.0Q644 1147 750 1147Q909 1147 990.0 1041.5Q1071 936 1071 727Z" transform="translate(286.17,0) scale(0.05762,-0.05762)"/></g></g></svg>