<svg xmlns="http://www.w3.org/2000/svg" width="256" height="256" viewBox="0 0 256 256"><path d="M 193.4 182.0 C 193.0 185.0 191.6 188.0 188.1 190.8 C 184.6 193.6 179.9 197.1 172.3 198.8 C 164.7 200.6 152.4 200.9 142.6 201.4 C 132.8 201.8 122.7 202.1 113.3 201.5 C 103.9 200.9 93.1 199.8 86.2 197.9 C 79.3 196.0 76.0 192.8 71.9 190.2 C 67.9 187.5 62.7 184.8 61.9 182.0 C 61.1 179.2 63.3 175.9 67.1 173.1 C 70.9 170.4 76.8 167.1 84.7 165.5 C 92.6 164.0 104.8 164.3 114.4 163.9 C 124.0 163.5 133.5 162.6 142.2 163.2 C 150.8 163.8 158.0 165.9 166.1 167.5 C 174.2 169.1 186.2 170.4 190.8 172.8 C 195.3 175.3 193.9 179.0 193.4 182.0 Z" fill="#0d1117"/><path d="M 179.3 146.0 C 178.3 148.6 175.4 150.9 172.4 153.3 C 169.4 155.7 167.1 159.0 161.2 160.5 C 155.4 161.9 145.2 161.7 137.3 162.2 C 129.4 162.7 121.1 164.1 113.7 163.7 C 106.2 163.3 98.1 161.5 92.5 159.7 C 87.0 158.0 84.0 155.5 80.4 153.2 C 76.8 150.9 70.9 148.4 70.9 146.0 C 71.0 143.6 77.0 141.2 80.6 138.8 C 84.1 136.5 86.4 133.6 92.1 132.1 C 97.8 130.6 107.2 130.2 114.7 129.8 C 122.2 129.4 129.8 129.4 137.3 129.7 C 144.9 130.1 153.0 130.8 159.8 132.1 C 166.7 133.4 175.2 135.4 178.5 137.7 C 181.7 140.0 180.3 143.4 179.3 146.0 Z" fill="#0d1117"/><path d="M 171.9 112.0 C 172.0 114.3 172.5 117.0 170.0 119.0 C 167.4 121.0 161.8 122.7 156.8 124.2 C 151.8 125.7 146.1 127.3 140.0 127.9 C 133.8 128.5 125.9 128.7 120.0 128.0 C 114.1 127.2 109.1 125.1 104.7 123.5 C 100.4 121.9 97.4 120.3 93.8 118.3 C 90.3 116.4 83.6 114.2 83.3 112.0 C 83.0 109.8 88.6 107.3 92.1 105.4 C 95.5 103.4 99.3 101.8 103.9 100.1 C 108.4 98.4 113.4 95.6 119.3 95.0 C 125.3 94.4 133.1 95.9 139.7 96.5 C 146.4 97.1 154.1 97.3 159.1 98.7 C 164.1 100.2 167.3 102.9 169.5 105.1 C 171.6 107.3 171.8 109.7 171.9 112.0 Z" fill="#0d1117"/><path d="M 159.7 82.0 C 160.1 84.0 159.0 86.4 157.1 88.3 C 155.1 90.3 151.7 92.1 148.0 93.5 C 144.3 94.9 139.4 96.3 134.7 96.7 C 129.9 97.2 124.4 96.7 119.6 96.2 C 114.7 95.7 108.7 95.2 105.5 93.8 C 102.4 92.3 102.3 89.5 100.6 87.6 C 98.9 85.6 96.0 84.0 95.2 82.0 C 94.4 80.0 94.0 77.3 95.9 75.4 C 97.8 73.6 102.6 72.1 106.5 70.8 C 110.4 69.4 114.8 67.6 119.4 67.4 C 123.9 67.1 129.0 68.7 133.6 69.3 C 138.2 69.9 143.4 70.0 146.8 71.1 C 150.3 72.3 152.4 74.4 154.5 76.2 C 156.7 78.0 159.3 80.0 159.7 82.0 Z" fill="#0d1117"/><path d="M 128 27.0 Q 132.6 39.4 145.0 44 Q 132.6 48.6 128 61.0 Q 123.4 48.6 111.0 44 Q 123.4 39.4 128 27.0 Z" fill="#0d1117"/></svg>