<svg xmlns="http://www.w3.org/2000/svg" width="560" height="456" viewBox="0 0 560 456"><g transform="translate(155,10) scale(0.98)"><defs><linearGradient id="cgS" x1="0" y1="55" x2="0" y2="205" gradientUnits="userSpaceOnUse"><stop offset="0" stop-color="#c9a7ff"/><stop offset="0.55" stop-color="#a371f7"/><stop offset="1" stop-color="#7c3aed"/></linearGradient></defs><path d="M 193.4 182.0 C 193.0 185.0 191.6 188.0 188.1 190.8 C 184.6 193.6 179.9 197.1 172.3 198.8 C 164.7 200.6 152.4 200.9 142.6 201.4 C 132.8 201.8 122.7 202.1 113.3 201.5 C 103.9 200.9 93.1 199.8 86.2 197.9 C 79.3 196.0 76.0 192.8 71.9 190.2 C 67.9 187.5 62.7 184.8 61.9 182.0 C 61.1 179.2 63.3 175.9 67.1 173.1 C 70.9 170.4 76.8 167.1 84.7 165.5 C 92.6 164.0 104.8 164.3 114.4 163.9 C 124.0 163.5 133.5 162.6 142.2 163.2 C 150.8 163.8 158.0 165.9 166.1 167.5 C 174.2 169.1 186.2 170.4 190.8 172.8 C 195.3 175.3 193.9 179.0 193.4 182.0 Z" fill="url(#cgS)"/><path d="M 171.4 171.0 C 171.6 171.9 170.9 172.9 168.4 173.7 C 165.8 174.5 161.2 175.4 156.0 175.8 C 150.8 176.3 143.2 176.4 137.1 176.5 C 130.9 176.6 125.1 176.5 119.2 176.3 C 113.2 176.2 106.3 176.1 101.5 175.6 C 96.7 175.1 93.6 174.3 90.3 173.5 C 87.1 172.7 82.5 171.9 82.0 171.0 C 81.5 170.1 84.4 169.1 87.4 168.3 C 90.5 167.5 95.2 166.8 100.3 166.2 C 105.5 165.7 111.9 165.3 118.2 165.1 C 124.5 164.9 132.1 164.7 138.0 165.0 C 143.8 165.2 148.6 166.0 153.4 166.6 C 158.2 167.2 163.8 167.7 166.8 168.4 C 169.8 169.2 171.1 170.1 171.4 171.0 Z" fill="#ffffff" opacity="0.16"/><path d="M 179.3 146.0 C 178.3 148.6 175.4 150.9 172.4 153.3 C 169.4 155.7 167.1 159.0 161.2 160.5 C 155.4 161.9 145.2 161.7 137.3 162.2 C 129.4 162.7 121.1 164.1 113.7 163.7 C 106.2 163.3 98.1 161.5 92.5 159.7 C 87.0 158.0 84.0 155.5 80.4 153.2 C 76.8 150.9 70.9 148.4 70.9 146.0 C 71.0 143.6 77.0 141.2 80.6 138.8 C 84.1 136.5 86.4 133.6 92.1 132.1 C 97.8 130.6 107.2 130.2 114.7 129.8 C 122.2 129.4 129.8 129.4 137.3 129.7 C 144.9 130.1 153.0 130.8 159.8 132.1 C 166.7 133.4 175.2 135.4 178.5 137.7 C 181.7 140.0 180.3 143.4 179.3 146.0 Z" fill="url(#cgS)"/><path d="M 160.5 136.1 C 160.6 136.9 163.7 138.0 161.4 138.6 C 159.2 139.3 151.6 139.6 147.1 140.0 C 142.6 140.5 139.1 141.4 134.4 141.6 C 129.6 141.7 123.5 141.2 118.5 141.0 C 113.5 140.7 109.1 140.5 104.4 140.1 C 99.7 139.7 92.5 139.3 90.4 138.7 C 88.2 138.0 91.2 136.9 91.6 136.1 C 91.9 135.3 90.5 134.4 92.5 133.7 C 94.4 133.0 99.3 132.4 103.5 131.9 C 107.8 131.4 112.9 131.1 118.0 130.9 C 123.1 130.7 129.2 130.6 134.1 130.8 C 139.0 131.0 142.9 131.6 147.4 132.1 C 151.8 132.6 158.5 133.0 160.7 133.6 C 162.8 134.3 160.4 135.3 160.5 136.1 Z" fill="#ffffff" opacity="0.16"/><path d="M 171.9 112.0 C 172.0 114.3 172.5 117.0 170.0 119.0 C 167.4 121.0 161.8 122.7 156.8 124.2 C 151.8 125.7 146.1 127.3 140.0 127.9 C 133.8 128.5 125.9 128.7 120.0 128.0 C 114.1 127.2 109.1 125.1 104.7 123.5 C 100.4 121.9 97.4 120.3 93.8 118.3 C 90.3 116.4 83.6 114.2 83.3 112.0 C 83.0 109.8 88.6 107.3 92.1 105.4 C 95.5 103.4 99.3 101.8 103.9 100.1 C 108.4 98.4 113.4 95.6 119.3 95.0 C 125.3 94.4 133.1 95.9 139.7 96.5 C 146.4 97.1 154.1 97.3 159.1 98.7 C 164.1 100.2 167.3 102.9 169.5 105.1 C 171.6 107.3 171.8 109.7 171.9 112.0 Z" fill="url(#cgS)"/><path d="M 157.7 103.2 C 157.7 103.8 155.9 104.5 154.3 105.1 C 152.6 105.7 150.8 106.5 147.8 106.9 C 144.7 107.3 140.0 107.5 136.1 107.6 C 132.1 107.7 128.0 107.6 124.0 107.5 C 120.1 107.4 115.9 107.2 112.2 106.9 C 108.5 106.5 104.0 106.1 101.9 105.4 C 99.7 104.8 99.3 103.9 99.4 103.2 C 99.5 102.5 100.4 101.6 102.6 101.0 C 104.8 100.4 109.3 100.1 112.8 99.6 C 116.3 99.2 119.6 98.6 123.5 98.5 C 127.4 98.3 132.3 98.5 136.2 98.7 C 140.1 98.9 144.0 99.2 147.0 99.7 C 150.1 100.1 152.5 100.7 154.3 101.3 C 156.1 101.9 157.7 102.6 157.7 103.2 Z" fill="#ffffff" opacity="0.16"/><path d="M 159.7 82.0 C 160.1 84.0 159.0 86.4 157.1 88.3 C 155.1 90.3 151.7 92.1 148.0 93.5 C 144.3 94.9 139.4 96.3 134.7 96.7 C 129.9 97.2 124.4 96.7 119.6 96.2 C 114.7 95.7 108.7 95.2 105.5 93.8 C 102.4 92.3 102.3 89.5 100.6 87.6 C 98.9 85.6 96.0 84.0 95.2 82.0 C 94.4 80.0 94.0 77.3 95.9 75.4 C 97.8 73.6 102.6 72.1 106.5 70.8 C 110.4 69.4 114.8 67.6 119.4 67.4 C 123.9 67.1 129.0 68.7 133.6 69.3 C 138.2 69.9 143.4 70.0 146.8 71.1 C 150.3 72.3 152.4 74.4 154.5 76.2 C 156.7 78.0 159.3 80.0 159.7 82.0 Z" fill="url(#cgS)"/><path d="M 149.2 74.3 C 149.5 74.9 148.6 75.7 147.1 76.2 C 145.6 76.8 142.7 77.2 140.1 77.6 C 137.5 77.9 134.4 78.1 131.5 78.2 C 128.6 78.3 125.7 78.1 122.7 78.0 C 119.7 77.9 115.9 78.0 113.4 77.7 C 111.0 77.4 109.5 76.7 108.1 76.1 C 106.6 75.5 104.8 74.9 104.9 74.3 C 104.9 73.7 107.0 73.1 108.4 72.5 C 109.8 71.9 110.8 71.2 113.2 70.9 C 115.5 70.5 119.4 70.5 122.5 70.4 C 125.6 70.2 128.9 69.9 132.0 70.0 C 135.0 70.1 138.4 70.5 140.7 70.9 C 143.0 71.3 144.3 71.9 145.7 72.5 C 147.2 73.1 149.0 73.7 149.2 74.3 Z" fill="#ffffff" opacity="0.16"/><path d="M 128 27.0 Q 132.6 39.4 145.0 44 Q 132.6 48.6 128 61.0 Q 123.4 48.6 111.0 44 Q 123.4 39.4 128 27.0 Z" fill="#f0b429"/></g><g transform="translate(124,375)"><g><g fill="#e6edf3"><path d="M1372 82Q1266 27 1151.0 -1.0Q1036 -29 911 -29Q538 -29 320.0 179.5Q102 388 102 745Q102 1103 320.0 1311.5Q538 1520 911 1520Q1036 1520 1151.0 1492.0Q1266 1464 1372 1409V1100Q1265 1173 1161.0 1207.0Q1057 1241 942 1241Q736 1241 618.0 1109.0Q500 977 500 745Q500 514 618.0 382.0Q736 250 942 250Q1057 250 1161.0 284.0Q1265 318 1372 391Z" transform="translate(0.00,0) scale(0.05078,-0.05078)"/><path d="M674 504Q562 504 505.5 466.0Q449 428 449 354Q449 286 494.5 247.5Q540 209 621 209Q722 209 791.0 281.5Q860 354 860 463V504ZM1221 639V0H860V166Q788 64 698.0 17.5Q608 -29 479 -29Q305 -29 196.5 72.5Q88 174 88 336Q88 533 223.5 625.0Q359 717 649 717H860V745Q860 830 793.0 869.5Q726 909 584 909Q469 909 370.0 886.0Q271 863 186 817V1090Q301 1118 417.0 1132.5Q533 1147 649 1147Q952 1147 1086.5 1027.5Q1221 908 1221 639Z" transform="translate(77.32,0) scale(0.05078,-0.05078)"/><path d="M172 1120H530V0H172ZM172 1556H530V1264H172Z" transform="translate(148.50,0) scale(0.05078,-0.05078)"/><path d="M1004 815Q957 837 910.5 847.5Q864 858 817 858Q679 858 604.5 769.5Q530 681 530 516V0H172V1120H530V936Q599 1046 688.5 1096.5Q778 1147 903 1147Q921 1147 942.0 1145.5Q963 1144 1003 1139Z" transform="translate(185.15,0) scale(0.05078,-0.05078)"/><path d="M1298 682V0H938V111V522Q938 667 931.5 722.0Q925 777 909 803Q888 838 852.0 857.5Q816 877 770 877Q658 877 594.0 790.5Q530 704 530 551V0H172V1120H530V956Q611 1054 702.0 1100.5Q793 1147 903 1147Q1097 1147 1197.5 1028.0Q1298 909 1298 682Z" transform="translate(237.44,0) scale(0.05078,-0.05078)"/></g><path d="M 166.328125 -94.25000000000001 Q 169.691875 -85.1825 178.759375 -81.81875000000001 Q 169.691875 -78.45500000000001 166.328125 -69.3875 Q 162.964375 -78.45500000000001 153.896875 -81.81875000000001 Q 162.964375 -85.1825 166.328125 -94.25000000000001 Z" fill="#f0b429"/></g></g><g transform="translate(78,427)"><g fill="#8b949e"><path d="M387 467V1331H90V1556H680V467Q680 335 721.0 280.0Q762 225 860 225H1094V0H778Q569 0 478.0 108.0Q387 216 387 467Z" transform="translate(0.00,0) scale(0.01270,-0.01270)"/><path d="M616 909Q511 909 451.0 816.5Q391 724 391 559Q391 394 451.0 301.5Q511 209 616 209Q722 209 782.0 301.5Q842 394 842 559Q842 724 782.0 816.5Q722 909 616 909ZM98 559Q98 830 238.5 988.5Q379 1147 616 1147Q854 1147 994.5 988.5Q1135 830 1135 559Q1135 288 994.5 129.5Q854 -29 616 -29Q379 -29 238.5 129.5Q98 288 98 559Z" transform="translate(17.65,0) scale(0.01270,-0.01270)"/><path d="M1061 57Q987 14 902.0 -7.5Q817 -29 719 -29Q460 -29 314.0 127.0Q168 283 168 559Q168 836 315.0 992.5Q462 1149 721 1149Q811 1149 894.5 1128.0Q978 1107 1061 1063V795Q997 850 920.5 879.5Q844 909 762 909Q619 909 542.0 818.0Q465 727 465 559Q465 391 542.0 301.0Q619 211 762 211Q847 211 921.0 239.5Q995 268 1061 326Z" transform="translate(35.31,0) scale(0.01270,-0.01270)"/><path d="M700 526Q536 526 471.0 484.0Q406 442 406 340Q406 264 451.0 219.0Q496 174 573 174Q689 174 753.0 261.5Q817 349 817 506V526ZM1108 639V0H817V125Q764 51 681.0 11.0Q598 -29 498 -29Q307 -29 200.5 72.0Q94 173 94 354Q94 550 221.0 643.5Q348 737 614 737H817V786Q817 857 765.5 893.5Q714 930 614 930Q509 930 410.5 903.5Q312 877 205 819V1069Q302 1109 402.0 1128.0Q502 1147 614 1147Q887 1147 997.5 1036.0Q1108 925 1108 639Z" transform="translate(52.96,0) scale(0.01270,-0.01270)"/><path d="M387 467V1331H90V1556H680V467Q680 335 721.0 280.0Q762 225 860 225H1094V0H778Q569 0 478.0 108.0Q387 216 387 467Z" transform="translate(70.61,0) scale(0.01270,-0.01270)"/><path d="M301 735H932V444H301Z" transform="translate(88.27,0) scale(0.01270,-0.01270)"/><path d="M739 1218V1120H1083V895H739V0H446V895H174V1120H446V1198Q446 1400 530.0 1478.0Q614 1556 842 1556H1083V1331H854Q788 1331 764.5 1307.0Q741 1283 739 1218Z" transform="translate(105.92,0) scale(0.01270,-0.01270)"/><path d="M221 1120H801V225H1165V0H143V225H508V895H221ZM508 1665H801V1323H508Z" transform="translate(123.57,0) scale(0.01270,-0.01270)"/><path d="M1151 811Q1103 855 1038.5 877.0Q974 899 897 899Q804 899 734.5 866.5Q665 834 627 772Q603 734 593.5 680.0Q584 626 584 516V0H291V1120H584V946Q627 1042 716.0 1094.5Q805 1147 924 1147Q984 1147 1041.5 1132.5Q1099 1118 1151 1090Z" transform="translate(141.23,0) scale(0.01270,-0.01270)"/><path d="M991 1085V829Q910 881 822.5 907.5Q735 934 647 934Q549 934 499.0 905.5Q449 877 449 821Q449 741 663 691L674 688L758 668Q918 630 992.5 545.5Q1067 461 1067 317Q1067 144 953.5 57.5Q840 -29 612 -29Q511 -29 405.0 -11.5Q299 6 190 41V297Q287 242 387.5 213.0Q488 184 582 184Q685 184 738.0 214.0Q791 244 791 301Q791 357 753.5 387.0Q716 417 575 451L494 469Q326 507 249.0 588.0Q172 669 172 805Q172 967 289.0 1057.0Q406 1147 618 1147Q713 1147 807.5 1131.5Q902 1116 991 1085Z" transform="translate(158.88,0) scale(0.01270,-0.01270)"/><path d="M690 1438V1120H1073V895H690V365Q690 290 726.5 257.5Q763 225 848 225H1073V0H827Q575 0 486.0 80.5Q397 161 397 379V895H111V1120H397V1438Z" transform="translate(176.53,0) scale(0.01270,-0.01270)"/><path d="M172 1233V1493H1061V1233H764V260H1061V0H172V260H469V1233Z" transform="translate(211.84,0) scale(0.01270,-0.01270)"/><path d="M700 526Q536 526 471.0 484.0Q406 442 406 340Q406 264 451.0 219.0Q496 174 573 174Q689 174 753.0 261.5Q817 349 817 506V526ZM1108 639V0H817V125Q764 51 681.0 11.0Q598 -29 498 -29Q307 -29 200.5 72.0Q94 173 94 354Q94 550 221.0 643.5Q348 737 614 737H817V786Q817 857 765.5 893.5Q714 930 614 930Q509 930 410.5 903.5Q312 877 205 819V1069Q302 1109 402.0 1128.0Q502 1147 614 1147Q887 1147 997.5 1036.0Q1108 925 1108 639Z" transform="translate(229.49,0) scale(0.01270,-0.01270)"/><path d="M1081 43Q1011 7 934.0 -11.0Q857 -29 772 -29Q470 -29 311.0 170.0Q152 369 152 745Q152 1122 311.0 1321.0Q470 1520 772 1520Q857 1520 935.0 1502.0Q1013 1484 1081 1448V1120Q1005 1190 933.5 1222.5Q862 1255 786 1255Q624 1255 541.5 1126.5Q459 998 459 745Q459 493 541.5 364.5Q624 236 786 236Q862 236 933.5 268.5Q1005 301 1081 371Z" transform="translate(247.15,0) scale(0.01270,-0.01270)"/><path d="M700 526Q536 526 471.0 484.0Q406 442 406 340Q406 264 451.0 219.0Q496 174 573 174Q689 174 753.0 261.5Q817 349 817 506V526ZM1108 639V0H817V125Q764 51 681.0 11.0Q598 -29 498 -29Q307 -29 200.5 72.0Q94 173 94 354Q94 550 221.0 643.5Q348 737 614 737H817V786Q817 857 765.5 893.5Q714 930 614 930Q509 930 410.5 903.5Q312 877 205 819V1069Q302 1109 402.0 1128.0Q502 1147 614 1147Q887 1147 997.5 1036.0Q1108 925 1108 639Z" transform="translate(282.45,0) scale(0.01270,-0.01270)"/><path d="M160 391V1120H453V436Q453 315 487.0 263.0Q521 211 600 211Q679 211 723.5 281.0Q768 351 768 477V1120H1061V0H768V166Q737 73 662.5 22.0Q588 -29 483 -29Q323 -29 241.5 77.0Q160 183 160 391Z" transform="translate(300.11,0) scale(0.01270,-0.01270)"/><path d="M791 961V1556H1083V0H791V166Q744 69 669.5 20.0Q595 -29 494 -29Q302 -29 196.0 125.0Q90 279 90 559Q90 843 197.5 995.0Q305 1147 504 1147Q594 1147 665.5 1100.5Q737 1054 791 961ZM383 557Q383 395 437.0 303.0Q491 211 586 211Q681 211 736.0 303.0Q791 395 791 557Q791 719 736.0 811.0Q681 903 586 903Q491 903 437.0 811.0Q383 719 383 557Z" transform="translate(317.76,0) scale(0.01270,-0.01270)"/><path d="M221 1120H801V225H1165V0H143V225H508V895H221ZM508 1665H801V1323H508Z" transform="translate(335.41,0) scale(0.01270,-0.01270)"/><path d="M690 1438V1120H1073V895H690V365Q690 290 726.5 257.5Q763 225 848 225H1073V0H827Q575 0 486.0 80.5Q397 161 397 379V895H111V1120H397V1438Z" transform="translate(353.07,0) scale(0.01270,-0.01270)"/><path d="M616 909Q511 909 451.0 816.5Q391 724 391 559Q391 394 451.0 301.5Q511 209 616 209Q722 209 782.0 301.5Q842 394 842 559Q842 724 782.0 816.5Q722 909 616 909ZM98 559Q98 830 238.5 988.5Q379 1147 616 1147Q854 1147 994.5 988.5Q1135 830 1135 559Q1135 288 994.5 129.5Q854 -29 616 -29Q379 -29 238.5 129.5Q98 288 98 559Z" transform="translate(370.72,0) scale(0.01270,-0.01270)"/><path d="M1151 811Q1103 855 1038.5 877.0Q974 899 897 899Q804 899 734.5 866.5Q665 834 627 772Q603 734 593.5 680.0Q584 626 584 516V0H291V1120H584V946Q627 1042 716.0 1094.5Q805 1147 924 1147Q984 1147 1041.5 1132.5Q1099 1118 1151 1090Z" transform="translate(388.37,0) scale(0.01270,-0.01270)"/></g></g></svg>